<?xml version="1.0" encoding="UTF-8" standalone="no"?><!DOCTYPE svg PUBLIC "-//W3C//DTD SVG 1.1//EN" "http://www.w3.org/Graphics/SVG/1.1/DTD/svg11.dtd"><svg width="100%" height="100%" viewBox="0 0 32 32" version="1.1" xmlns="http://www.w3.org/2000/svg" xmlns:xlink="http://www.w3.org/1999/xlink" xml:space="preserve" style="fill-rule:evenodd;clip-rule:evenodd;stroke-linejoin:round;stroke-miterlimit:1.41421;"><path d="M22.498,20.862l-3.282,-2.791c-0.339,-0.305 -0.702,-0.445 -0.995,-0.432c0.774,-0.907 1.242,-2.084 1.242,-3.371c0,-2.869 -2.326,-5.195 -5.195,-5.195c-2.869,0 -5.195,2.326 -5.195,5.195c0,2.869 2.326,5.195 5.195,5.195c1.287,0 2.464,-0.468 3.371,-1.242c-0.013,0.293 0.127,0.656 0.432,0.995l2.791,3.282c0.478,0.53 1.259,0.575 1.735,0.099c0.476,-0.476 0.432,-1.257 -0.099,-1.735Zm-8.23,-3.13c-1.912,0 -3.463,-1.551 -3.463,-3.463c0,-1.913 1.551,-3.464 3.463,-3.464c1.913,0 3.464,1.551 3.464,3.464c0,1.912 -1.551,3.463 -3.464,3.463Z" style="fill-opacity:0.152941;fill-rule:nonzero;"/></svg>